<?xml version="1.0" encoding="UTF-8" standalone="no"?>
<!DOCTYPE svg PUBLIC "-//W3C//DTD SVG 1.1//EN"
 "http://www.w3.org/Graphics/SVG/1.1/DTD/svg11.dtd">
<!-- Generated by graphviz version 2.47.0 (20210316.0004)
 -->
<!-- Pages: 1 -->
<svg width="349pt" height="464pt"
 viewBox="0.00 0.00 349.00 464.00" xmlns="http://www.w3.org/2000/svg" xmlns:xlink="http://www.w3.org/1999/xlink">
<g id="graph0" class="graph" transform="scale(1 1) rotate(0) translate(4 460)">
<polygon fill="white" stroke="transparent" points="-4,4 -4,-460 345,-460 345,4 -4,4"/>
<!-- 31233104 -->
<g id="node1" class="node">
<title>31233104</title>
<polygon fill="white" stroke="black" points="230.5,-456 110.5,-456 110.5,-396 230.5,-396 230.5,-456"/>
<text text-anchor="middle" x="170.5" y="-422.2" font-family="Helvetica,sans-Serif" font-size="16.00">Module</text>
</g>
<!-- 30615792 -->
<g id="node2" class="node">
<title>30615792</title>
<ellipse fill="white" stroke="black" cx="170.5" cy="-294" rx="30" ry="30"/>
<text text-anchor="start" x="158" y="-291.2" font-family="Helvetica,sans-Serif" font-style="italic" font-size="16.00">List</text>
</g>
<!-- 31233104&#45;&gt;30615792 -->
<g id="edge3" class="edge">
<title>31233104&#45;&gt;30615792</title>
<path fill="none" stroke="black" d="M170.5,-395.83C170.5,-377.68 170.5,-354.11 170.5,-334.32"/>
<polygon fill="black" stroke="black" points="174,-334.08 170.5,-324.08 167,-334.08 174,-334.08"/>
<polygon fill="white" stroke="transparent" points="149.5,-351.08 149.5,-377.08 191.5,-377.08 191.5,-351.08 149.5,-351.08"/>
<text text-anchor="start" x="153.5" y="-360.28" font-family="Helvetica,sans-Serif" font-size="16.00">body</text>
</g>
<!-- 31233152 -->
<g id="node3" class="node">
<title>31233152</title>
<polygon fill="white" stroke="black" points="230.5,-192 110.5,-192 110.5,-132 230.5,-132 230.5,-192"/>
<text text-anchor="middle" x="170.5" y="-158.2" font-family="Helvetica,sans-Serif" font-size="16.00">Expr</text>
</g>
<!-- 30615792&#45;&gt;31233152 -->
<g id="edge2" class="edge">
<title>30615792&#45;&gt;31233152</title>
<path fill="none" stroke="black" d="M170.5,-263.83C170.5,-245.68 170.5,-222.11 170.5,-202.32"/>
<polygon fill="black" stroke="black" points="174,-202.08 170.5,-192.08 167,-202.08 174,-202.08"/>
<polygon fill="white" stroke="transparent" points="161.5,-219.08 161.5,-245.08 179.5,-245.08 179.5,-219.08 161.5,-219.08"/>
<text text-anchor="start" x="165.5" y="-228.28" font-family="Helvetica,sans-Serif" font-size="16.00">0</text>
</g>
<!-- 31233200 -->
<g id="node4" class="node">
<title>31233200</title>
<polygon fill="white" stroke="black" points="341,-60 0,-60 0,0 341,0 341,-60"/>
<text text-anchor="middle" x="170.5" y="-35.2" font-family="Helvetica,sans-Serif" font-size="16.00">Str</text>
<text text-anchor="middle" x="170.5" y="-17.2" font-family="Helvetica,sans-Serif" font-size="16.00">s = &#39;successsuccesssuccesssuccesssuccess&#39;</text>
</g>
<!-- 31233152&#45;&gt;31233200 -->
<g id="edge1" class="edge">
<title>31233152&#45;&gt;31233200</title>
<path fill="none" stroke="black" d="M170.5,-131.83C170.5,-113.68 170.5,-90.11 170.5,-70.32"/>
<polygon fill="black" stroke="black" points="174,-70.08 170.5,-60.08 167,-70.08 174,-70.08"/>
<polygon fill="white" stroke="transparent" points="147.5,-87.08 147.5,-113.08 193.5,-113.08 193.5,-87.08 147.5,-87.08"/>
<text text-anchor="start" x="151.5" y="-96.28" font-family="Helvetica,sans-Serif" font-size="16.00">value</text>
</g>
</g>
</svg>
